<svg width="17" height="11" viewBox="0 0 17 11" fill="none" xmlns="http://www.w3.org/2000/svg">
<path d="M3.41421 0.585786C2.63317 -0.195262 1.36683 -0.195262 0.585786 0.585786C-0.195262 1.36683 -0.195262 2.63317 0.585786 3.41421L3.41421 0.585786ZM8.5 8.5L7.08579 9.91421C7.86684 10.6953 9.13316 10.6953 9.91421 9.91421L8.5 8.5ZM16.4142 3.41421C17.1953 2.63317 17.1953 1.36683 16.4142 0.585786C15.6332 -0.195262 14.3668 -0.195262 13.5858 0.585786L16.4142 3.41421ZM0.585786 3.41421L7.08579 9.91421L9.91421 7.08579L3.41421 0.585786L0.585786 3.41421ZM9.91421 9.91421L16.4142 3.41421L13.5858 0.585786L7.08579 7.08579L9.91421 9.91421Z" fill="#57B85F"/>
</svg>
